<?xml version="1.0" encoding="utf-8"?>
<!-- Generator: Adobe Illustrator 19.2.1, SVG Export Plug-In . SVG Version: 6.00 Build 0)  -->
<svg version="1.1" id="layer" xmlns="http://www.w3.org/2000/svg" xmlns:xlink="http://www.w3.org/1999/xlink" x="0px" y="0px"
	 viewBox="0 0 652 652" style="enable-background:new 0 0 652 652;" xml:space="preserve">
<style type="text/css">
	.st0{fill:#1A2538;}
	.st1{fill:#F26B2C;}
</style>
<path class="st0" d="M187.9,309c0,1.9,1,3.4,3,4.6s4.3,2.1,7.1,2.9c2.7,0.8,5.5,1.6,8.2,2.4s5.1,2.3,7,4.6c1.9,2.2,2.9,5.1,2.9,8.6
	c0,4.6-1.8,8.2-5.3,11c-3.5,2.7-8,4.1-13.5,4.1c-4.9,0-9.1-1.1-12.5-3.2c-3.5-2.1-6-5-7.4-8.5l7.5-4.3c0.8,2.4,2.3,4.3,4.5,5.7
	c2.2,1.4,4.9,2.1,7.9,2.1c2.9,0,5.2-0.5,7.1-1.6c1.9-1.1,2.8-2.8,2.8-5.2c0-2-1-3.5-2.9-4.7c-2-1.2-4.3-2.2-7-3
	c-2.7-0.8-5.5-1.6-8.2-2.5c-2.7-0.9-5.1-2.3-7.1-4.4c-2-2.1-2.9-4.9-2.9-8.2c0-4.4,1.7-7.9,5-10.8c3.4-2.8,7.6-4.2,12.7-4.2
	c4.1,0,7.7,0.9,10.9,2.7c3.2,1.8,5.6,4.4,7.2,7.7l-7.3,4.1c-1.8-4.3-5.4-6.4-10.8-6.4c-2.5,0-4.6,0.5-6.3,1.7
	C188.7,305.3,187.9,306.9,187.9,309 M251.3,294.3c-7.3,0-12.7,2.9-16.2,8.6v-7.2h-8.8v50.2h8.8v-26.6c0-5.6,1.3-9.7,4-12.5
	c2.7-2.7,6.1-4.1,10.5-4.1c3.9,0,6.9,1.1,9.1,3.3c2.2,2.2,3.3,5.4,3.3,9.5v30.3h8.8V315c0-6.3-1.8-11.4-5.3-15.1
	C261.9,296.1,257.2,294.3,251.3,294.3 M306.7,338.6c-5,0-9.2-1.7-12.7-5.2c-3.4-3.4-5.1-7.7-5.1-12.8c0-5,1.7-9.3,5.1-12.8
	s7.6-5.2,12.7-5.2c5.1,0,9.4,1.7,12.8,5.2c3.4,3.4,5.1,7.7,5.1,12.8c0,5.1-1.7,9.3-5.1,12.8C316,336.9,311.8,338.6,306.7,338.6
	 M324.5,304.1c-4.4-6.6-10.7-9.9-19-9.9c-7,0-13,2.6-17.9,7.7c-4.9,5.1-7.4,11.4-7.4,18.7c0,7.4,2.5,13.6,7.4,18.7
	s10.9,7.7,17.9,7.7c8.3,0,14.6-3.3,19-9.9v8.6h8.8v-50.2h-8.8V304.1z M371.9,338.6c-5,0-9.3-1.7-12.8-5.2c-3.4-3.4-5.1-7.7-5.1-12.8
	c0-5,1.7-9.3,5.1-12.8c3.5-3.5,7.7-5.2,12.8-5.2c5,0,9.2,1.7,12.7,5.2c3.4,3.4,5.1,7.7,5.1,12.8c0,5-1.7,9.3-5.1,12.8
	C381.2,336.9,377,338.6,371.9,338.6 M373,294.3c-8.3,0-14.6,3.3-19,9.9v-8.6h-8.8v67.5h8.8v-25.9c4.4,6.6,10.7,9.9,19,9.9
	c7,0,13-2.5,17.9-7.7c4.9-5.1,7.4-11.4,7.4-18.7c0-7.4-2.5-13.6-7.4-18.7C386,296.8,380.1,294.3,373,294.3 M430.6,338.6
	c-5,0-9.2-1.7-12.7-5.2c-3.4-3.4-5.1-7.7-5.1-12.8c0-5,1.7-9.3,5.1-12.8c3.4-3.5,7.6-5.2,12.7-5.2c5.1,0,9.4,1.7,12.8,5.2
	c3.4,3.4,5.1,7.7,5.1,12.8c0,5-1.7,9.3-5.1,12.8C439.9,336.9,435.7,338.6,430.6,338.6 M448.5,304.2c-4.4-6.6-10.7-9.9-19-9.9
	c-7,0-13,2.6-17.9,7.7c-4.9,5.1-7.4,11.4-7.4,18.7c0,7.4,2.5,13.6,7.4,18.7c4.9,5.1,10.9,7.7,17.9,7.7c8.3,0,14.6-3.3,19-9.9v8.6
	h8.8v-67.5h-8.8V304.2z M493.8,338.5c-5,0-9.1-1.7-12.5-5.1c-3.4-3.5-5.1-7.7-5.1-12.8c0-5.1,1.7-9.4,5.1-12.8
	c3.4-3.4,7.6-5.1,12.5-5.1c5,0,9.2,1.7,12.7,5.1c3.4,3.5,5.1,7.7,5.1,12.8c0,5.1-1.7,9.4-5.1,12.8
	C503.1,336.8,498.9,338.5,493.8,338.5 M512.6,339.5c5.1-5.1,7.7-11.4,7.7-18.8c0-7.4-2.6-13.7-7.7-18.8c-5.2-5-11.4-7.6-18.8-7.6
	c-7.4,0-13.6,2.5-18.7,7.6s-7.7,11.4-7.7,18.8c0,7.5,2.6,13.7,7.7,18.8c5.1,5,11.4,7.6,18.7,7.6
	C501.2,347.1,507.5,344.6,512.6,339.5 M553.4,347.1c4.9,0,9.3-1.2,13.4-3.6c4-2.4,7.1-5.5,9.2-9.5l-7.4-4.3
	c-1.4,2.7-3.5,4.8-6.1,6.4c-2.7,1.6-5.7,2.4-9.1,2.4c-5,0-9.2-1.7-12.6-5.1c-3.3-3.4-5-7.6-5-12.7s1.6-9.4,5-12.8
	c3.3-3.4,7.5-5.1,12.6-5.1c3.3,0,6.4,0.9,9,2.4c2.7,1.6,4.6,3.8,5.9,6.5l7.3-4.2c-2-4-4.9-7.2-8.8-9.6c-4-2.4-8.5-3.6-13.4-3.6
	c-7.5,0-13.8,2.5-18.9,7.6c-5,5.1-7.5,11.3-7.5,18.8s2.5,13.7,7.5,18.8C539.5,344.5,545.8,347.1,553.4,347.1 M593.9,309
	c0-2.1,0.9-3.7,2.6-4.9c1.8-1.2,3.8-1.7,6.3-1.7c5.4,0,8.9,2.2,10.8,6.4l7.3-4.1c-1.6-3.3-4-5.8-7.2-7.7c-3.2-1.8-6.8-2.7-10.9-2.7
	c-5.1,0-9.3,1.4-12.7,4.2c-3.3,2.9-5,6.4-5,10.8c0,3.3,1,6.1,2.9,8.2c1.9,2.1,4.3,3.6,7.1,4.4c2.7,0.8,5.5,1.7,8.2,2.5s5,1.8,7,3
	c1.9,1.2,2.9,2.7,2.9,4.7c0,2.4-0.9,4.1-2.8,5.2s-4.3,1.6-7.1,1.6c-3,0-5.7-0.7-7.9-2.1c-2.2-1.4-3.7-3.3-4.5-5.7l-7.5,4.3
	c1.5,3.5,4,6.4,7.4,8.5c3.5,2.1,7.7,3.2,12.5,3.2c5.5,0,10-1.4,13.5-4.1c3.5-2.7,5.3-6.4,5.3-11c0-3.5-1-6.3-2.9-8.6s-4.3-3.8-7-4.6
	c-2.7-0.8-5.5-1.6-8.2-2.4c-2.7-0.8-5.1-1.8-7.1-2.9S593.9,310.9,593.9,309"/>
<path class="st1" d="M44.7,346.5h21.4v21.4H23.3v-42.8h21.4C44.7,325.1,44.7,346.5,44.7,346.5z M96.2,316.4h21.4v-42.8H74.8V295
	h21.4C96.2,295,96.2,316.4,96.2,316.4z M66.1,278.3V295H44.7v24c-5.6,0-10.7-2.1-14.7-5.4c-4.9-4.1-8-10.3-8-17.3
	c0-12.5,10.2-22.7,22.7-22.7h21.4V278.3z M111.2,328.3c-4-3.5-9.2-5.7-15-5.7v24H74.8V363v4.9h21.4c12.5,0,22.7-10.2,22.7-22.7
	C118.9,338.5,115.9,332.4,111.2,328.3"/>
</svg>
