<?xml version="1.0" encoding="UTF-8"?>
<!DOCTYPE svg PUBLIC "-//W3C//DTD SVG 1.1//EN" "http://www.w3.org/Graphics/SVG/1.1/DTD/svg11.dtd">
<!-- Creator: CorelDRAW X8 -->
<svg xmlns="http://www.w3.org/2000/svg" xml:space="preserve" width="100%" height="100%" version="1.1" shape-rendering="geometricPrecision" text-rendering="geometricPrecision" image-rendering="optimizeQuality" fill-rule="evenodd" clip-rule="evenodd"
viewBox="0 0 3895 593"
 xmlns:xlink="http://www.w3.org/1999/xlink"
 enable-background="new 0 0 64 64">
 <g id="Layer_x0020_1">
  <metadata id="CorelCorpID_0Corel-Layer"/>
  <g id="_2636408467136">
   <path id="Diamond" fill="#373435" d="M478 213l-110 -106c-2,-1 -4,-3 -6,-3l-238 0c-2,0 -3,2 -5,3l-110 105c-3,3 -3,7 -1,10 2,2 228,294 230,296 1,1 2,2 2,2 3,1 4,1 6,0 1,0 2,-1 3,-2 0,0 0,0 0,0l230 -295c2,-3 2,-7 -1,-10zm-356 -90l37 84 -126 0 89 -84zm63 84l58 -83 59 83 -117 0zm123 15l-65 258 -64 -258 129 0zm-50 -104l92 0 -35 82 -57 -82zm-86 82l-36 -82 93 0 -57 82zm-8 22l64 256 -199 -256 135 0zm159 0l135 0 -199 256 64 -256zm5 -15l37 -84 88 84 -125 0z"/>
  </g>
  <path fill="#373435" fill-rule="nonzero" d="M893 429c0,2 -1,4 -1,5 0,1 0,3 0,4 -1,1 -1,2 -2,3 0,1 -1,2 -3,3 -1,2 -4,4 -9,7 -5,4 -11,7 -19,10 -7,3 -16,6 -26,8 -9,2 -20,4 -32,4 -18,0 -35,-4 -50,-10 -16,-7 -29,-16 -39,-29 -11,-12 -19,-28 -25,-46 -6,-19 -9,-40 -9,-63 0,-25 3,-46 10,-66 6,-19 14,-35 25,-49 12,-13 25,-23 41,-30 15,-8 32,-11 51,-11 9,0 18,1 26,2 9,2 16,4 23,7 8,2 14,5 20,9 5,3 9,6 11,8 2,2 3,3 4,4 0,1 1,2 1,3 0,1 1,3 1,4 0,2 0,3 0,5 0,2 0,4 0,6 0,1 -1,3 -1,4 -1,1 -2,2 -2,3 -1,0 -2,1 -3,1 -2,0 -5,-2 -9,-5 -4,-3 -9,-7 -16,-11 -6,-3 -14,-7 -23,-10 -9,-3 -20,-5 -33,-5 -14,0 -27,3 -39,9 -11,5 -21,14 -30,25 -8,10 -15,24 -19,40 -5,16 -7,34 -7,55 0,20 2,37 6,53 4,15 11,28 19,38 8,11 18,19 30,24 12,6 26,9 41,9 12,0 23,-2 32,-5 10,-3 18,-7 24,-10 7,-4 12,-8 17,-11 4,-3 7,-4 9,-4 1,0 2,0 3,0 0,0 1,1 1,2 1,1 1,2 1,4 0,2 1,4 1,6z"/>
  <path id="1" fill="#373435" fill-rule="nonzero" d="M1223 317c0,24 -3,46 -9,65 -5,19 -13,36 -24,49 -11,14 -25,24 -41,32 -17,7 -36,11 -58,11 -23,0 -42,-4 -57,-11 -16,-7 -30,-17 -40,-30 -10,-13 -17,-29 -22,-47 -5,-19 -8,-40 -8,-64 0,-23 3,-44 9,-63 5,-19 13,-35 24,-49 11,-13 25,-24 41,-31 17,-7 36,-11 58,-11 22,0 41,3 57,10 16,7 29,17 39,30 10,13 18,29 23,47 5,18 8,39 8,62zm-30 3c0,-18 -2,-34 -5,-50 -3,-15 -9,-28 -17,-40 -7,-11 -17,-20 -30,-27 -13,-6 -28,-10 -47,-10 -18,0 -34,4 -47,11 -12,7 -23,16 -31,27 -7,12 -13,25 -17,40 -3,16 -5,32 -5,49 0,18 2,35 5,50 3,16 8,29 16,41 7,11 18,20 30,27 13,6 29,10 48,10 18,0 34,-4 47,-11 13,-7 23,-16 31,-28 8,-12 13,-25 17,-40 3,-16 5,-32 5,-49z"/>
  <path id="2" fill="#373435" fill-rule="nonzero" d="M1640 465c0,1 0,2 -1,3 0,1 -1,1 -2,2 -1,0 -3,0 -5,1 -2,0 -4,0 -7,0 -2,0 -4,0 -6,0 -2,-1 -3,-1 -4,-1 -2,-1 -2,-1 -3,-2 0,-1 0,-2 0,-3l0 -269 -1 0 -117 271c0,0 -1,1 -1,2 -1,0 -2,1 -3,1 -1,0 -2,1 -4,1 -1,0 -3,0 -5,0 -2,0 -4,0 -5,0 -2,0 -3,-1 -4,-1 -1,0 -2,-1 -3,-1 0,-1 -1,-2 -1,-2l-111 -271 0 0 0 269c0,1 0,2 -1,3 0,1 -1,1 -2,2 -2,0 -3,0 -5,1 -2,0 -4,0 -7,0 -2,0 -5,0 -6,0 -2,-1 -4,-1 -5,-1 -1,-1 -2,-1 -2,-2 0,-1 -1,-2 -1,-3l0 -279c0,-5 2,-9 5,-11 3,-2 6,-3 8,-3l16 0c4,0 7,0 10,1 3,1 5,2 8,4 2,1 4,3 5,6 2,2 3,4 4,7l98 237 2 0 102 -236c1,-3 3,-6 5,-9 2,-3 4,-5 5,-6 2,-2 5,-3 7,-3 2,-1 4,-1 7,-1l17 0c1,0 3,0 4,0 2,1 3,2 4,3 2,1 3,2 4,4 0,2 1,4 1,7l0 279z"/>
  <path id="3" fill="#373435" fill-rule="nonzero" d="M1936 257c0,14 -2,27 -7,38 -5,12 -11,22 -20,30 -9,8 -20,15 -32,20 -13,4 -28,6 -46,6l-38 0 0 114c0,1 -1,2 -1,3 -1,1 -1,1 -2,2 -2,0 -3,0 -5,1 -2,0 -4,0 -7,0 -2,0 -4,0 -6,0 -2,-1 -4,-1 -5,-1 -1,-1 -2,-1 -2,-2 0,-1 -1,-2 -1,-3l0 -279c0,-5 2,-9 5,-11 3,-2 5,-3 8,-3l61 0c6,0 12,0 17,1 6,0 13,1 20,3 8,2 16,5 24,10 7,5 14,11 20,18 5,7 10,15 13,24 3,9 4,19 4,29zm-30 3c0,-13 -2,-24 -7,-33 -5,-9 -12,-16 -19,-20 -7,-5 -15,-7 -23,-9 -8,-1 -15,-1 -22,-1l-42 0 0 129 40 0c13,0 24,-1 33,-4 9,-4 16,-8 22,-14 6,-6 10,-13 14,-21 3,-9 4,-18 4,-27z"/>
  <path id="4" fill="#373435" fill-rule="nonzero" d="M2216 460c1,3 2,5 1,6 0,2 0,3 -1,3 -1,1 -3,2 -5,2 -2,0 -4,0 -8,0 -3,0 -5,0 -7,0 -2,0 -4,-1 -5,-1 -1,-1 -2,-1 -2,-2 -1,-1 -1,-2 -2,-3l-28 -79 -131 0 -27 79c-1,1 -1,2 -2,3 0,0 -1,1 -2,2 -1,0 -3,0 -5,1 -2,0 -4,0 -7,0 -3,0 -6,0 -8,0 -2,-1 -4,-1 -5,-2 -1,-1 -1,-2 -1,-3 -1,-1 0,-3 1,-6l104 -283c0,-1 1,-2 2,-3 1,-1 2,-2 4,-2 1,-1 3,-1 5,-1 2,-1 4,-1 7,-1 3,0 5,0 7,1 2,0 4,0 5,1 2,0 3,1 4,2 1,1 1,2 2,3l104 283zm-123 -258l-1 0 -56 160 114 0 -57 -160z"/>
  <path id="5" fill="#373435" fill-rule="nonzero" d="M2522 456c0,3 -1,5 -2,7 0,2 -2,4 -3,5 -1,1 -3,2 -4,2 -2,1 -3,1 -5,1l-5 0c-4,0 -6,-1 -9,-1 -2,-1 -5,-2 -7,-4 -3,-2 -5,-5 -8,-8 -2,-3 -5,-8 -7,-13l-105 -186c-6,-9 -11,-18 -16,-28 -5,-9 -10,-19 -15,-28l0 0c0,12 0,23 0,35 0,12 0,23 0,34l0 193c0,1 0,2 -1,3 0,1 -1,1 -2,2 -1,0 -3,0 -4,1 -2,0 -5,0 -7,0 -3,0 -5,0 -7,0 -2,-1 -3,-1 -4,-1 -2,-1 -2,-1 -3,-2 0,-1 0,-2 0,-3l0 -279c0,-5 1,-9 4,-11 3,-2 6,-3 8,-3l12 0c4,0 7,0 9,1 3,0 5,1 7,3 2,1 4,3 6,6 2,3 4,6 6,10l80 143c6,9 10,17 15,26 4,8 9,16 13,24 4,8 9,15 13,23 4,8 8,16 12,23l1 0c-1,-12 -1,-26 -1,-40 0,-14 0,-27 0,-40l0 -174c0,-1 1,-1 1,-2 1,-1 1,-2 2,-2 1,-1 3,-1 5,-1 2,-1 4,-1 7,-1 2,0 4,0 6,1 2,0 3,0 4,1 2,0 2,1 3,2 0,1 1,1 1,2l0 279z"/>
  <path id="6" fill="#373435" fill-rule="nonzero" d="M2728 352l0 113c0,1 -1,2 -1,3 -1,1 -1,1 -2,2 -2,0 -3,0 -5,1 -2,0 -4,0 -6,0 -3,0 -5,0 -7,0 -2,-1 -4,-1 -5,-1 -1,-1 -2,-1 -2,-2 -1,-1 -1,-2 -1,-3l0 -113 -86 -171c-1,-2 -1,-4 -1,-5 -1,-2 0,-3 1,-4 0,0 2,-1 4,-1 2,0 4,-1 8,-1 3,0 6,0 8,1 2,0 4,0 5,1 1,0 2,1 3,2 0,0 1,1 2,2l45 93c4,9 9,18 13,27 4,10 8,19 13,29l0 0c4,-9 8,-19 12,-28 5,-9 9,-18 13,-27l46 -94c1,-1 1,-2 2,-2 0,-1 1,-2 2,-2 1,-1 3,-1 5,-1 1,-1 4,-1 6,-1 4,0 7,1 9,1 3,0 4,1 5,2 1,0 1,2 1,3 0,1 0,3 -2,5l-85 171z"/>
  <path id="7" fill="#373435" fill-rule="nonzero" d="M3161 457c0,2 0,4 -1,6 0,1 0,2 -1,4 -1,1 -1,1 -2,2 -1,1 -2,1 -4,1l-129 0c-3,0 -5,-1 -8,-3 -3,-2 -5,-6 -5,-12l0 -279c0,-1 0,-1 1,-2 0,-1 1,-2 2,-2 1,0 3,-1 5,-1 2,0 4,-1 6,-1 3,0 5,1 7,1 2,0 3,1 5,1 1,0 1,1 2,2 0,1 1,1 1,2l0 268 113 0c2,0 3,1 4,1 1,1 1,1 2,2 1,1 1,3 1,4 1,2 1,4 1,6z"/>
  <path id="8" fill="#373435" fill-rule="nonzero" d="M3389 359c0,16 -2,32 -7,46 -4,14 -10,26 -19,36 -9,10 -19,18 -32,24 -13,6 -27,9 -44,9 -17,0 -31,-3 -43,-8 -12,-5 -23,-13 -31,-22 -8,-10 -14,-21 -18,-35 -4,-14 -6,-29 -6,-46 0,-17 2,-32 6,-46 4,-14 11,-26 19,-36 9,-11 19,-19 32,-24 13,-6 28,-9 45,-9 16,0 30,3 42,8 13,5 23,12 31,22 8,9 14,21 18,35 5,13 7,29 7,46zm-30 2c0,-12 -1,-23 -3,-34 -2,-10 -6,-20 -12,-28 -5,-8 -12,-15 -21,-20 -9,-4 -20,-7 -34,-7 -12,0 -23,2 -32,7 -9,4 -16,11 -22,18 -6,8 -10,18 -13,28 -3,11 -4,23 -4,35 0,12 1,23 3,34 3,11 6,20 12,29 5,8 12,14 21,19 9,5 21,7 34,7 13,0 23,-2 32,-7 9,-4 17,-10 23,-18 5,-8 10,-17 12,-28 3,-11 4,-22 4,-35z"/>
  <path id="9" fill="#373435" fill-rule="nonzero" d="M3617 264c0,4 0,7 -2,9 -1,1 -3,2 -5,2l-33 0c6,7 11,14 13,22 3,7 4,16 4,24 0,12 -2,23 -6,32 -3,9 -9,17 -16,23 -6,7 -15,11 -24,15 -10,3 -20,5 -32,5 -9,0 -18,-2 -27,-4 -8,-3 -15,-6 -19,-10 -3,3 -6,7 -8,11 -2,4 -3,8 -3,14 0,5 3,10 9,14 5,4 13,7 21,7l57 2c9,0 18,2 27,4 8,2 16,6 22,10 6,5 11,10 15,17 4,7 5,14 5,23 0,9 -2,18 -5,27 -4,8 -10,16 -18,22 -8,6 -18,11 -30,15 -12,4 -27,6 -44,6 -16,0 -30,-2 -42,-4 -11,-3 -21,-7 -28,-12 -7,-5 -13,-11 -16,-18 -3,-7 -5,-14 -5,-22 0,-5 1,-10 2,-15 1,-5 3,-9 6,-13 2,-5 5,-9 9,-13 4,-4 8,-8 13,-12 -8,-4 -14,-9 -17,-15 -4,-5 -6,-11 -6,-18 0,-9 2,-18 6,-25 3,-7 8,-14 13,-20 -4,-6 -8,-12 -10,-19 -3,-7 -4,-15 -4,-25 0,-11 2,-22 6,-31 4,-9 9,-17 16,-24 7,-6 15,-11 24,-15 10,-3 20,-5 32,-5 6,0 11,0 17,1 5,1 10,2 14,3l62 0c2,0 4,1 6,3 1,2 1,5 1,9zm-51 58c0,-16 -4,-28 -13,-37 -9,-9 -21,-14 -37,-14 -8,0 -15,2 -22,4 -6,3 -11,7 -15,12 -4,4 -7,10 -9,16 -2,7 -3,13 -3,20 0,16 5,28 13,36 9,9 21,14 37,14 8,0 15,-2 22,-4 6,-3 11,-7 15,-12 4,-4 7,-10 9,-16 2,-6 3,-13 3,-19zm22 164c0,-10 -4,-18 -12,-23 -9,-6 -20,-9 -33,-9l-61 -2c-6,4 -10,8 -14,12 -3,4 -6,8 -8,11 -2,4 -4,7 -4,11 -1,3 -2,7 -2,10 0,12 6,20 18,26 11,6 27,9 48,9 12,0 23,-2 32,-4 9,-3 16,-6 21,-10 5,-4 9,-9 12,-14 2,-6 3,-11 3,-17z"/>
  <path id="10" fill="#373435" fill-rule="nonzero" d="M3854 359c0,16 -3,32 -7,46 -4,14 -11,26 -19,36 -9,10 -19,18 -32,24 -13,6 -28,9 -45,9 -16,0 -30,-3 -42,-8 -12,-5 -23,-13 -31,-22 -8,-10 -14,-21 -18,-35 -4,-14 -6,-29 -6,-46 0,-17 2,-32 6,-46 4,-14 10,-26 19,-36 8,-11 19,-19 32,-24 13,-6 28,-9 45,-9 16,0 30,3 42,8 13,5 23,12 31,22 8,9 14,21 18,35 5,13 7,29 7,46zm-30 2c0,-12 -1,-23 -3,-34 -2,-10 -6,-20 -12,-28 -5,-8 -12,-15 -21,-20 -9,-4 -21,-7 -34,-7 -12,0 -23,2 -32,7 -9,4 -17,11 -22,18 -6,8 -10,18 -13,28 -3,11 -4,23 -4,35 0,12 1,23 3,34 3,11 6,20 12,29 5,8 12,14 21,19 9,5 21,7 34,7 12,0 23,-2 32,-7 9,-4 17,-10 22,-18 6,-8 10,-17 13,-28 3,-11 4,-22 4,-35z"/>
 </g>
</svg>
